HIERARCHY
ROOT Hips
{
  OFFSET 0 0 0
  CHANNELS 6 Xposition Yposition Zposition Zrotation Xrotation Yrotation
  JOINT LeftUpLeg
  {
    OFFSET 4.06525 -3.90732 0.41711
    CHANNELS 3 Zrotation Xrotation Yrotation
    JOINT LeftLeg
    {
      OFFSET 0.00023 -18.4821 0.00367
      CHANNELS 3 Zrotation Xrotation Yrotation
      JOINT LeftFoot
      {
        OFFSET -0.00172 -15.2898 -0.02629
        CHANNELS 3 Zrotation Xrotation Yrotation
        JOINT LeftToeBase
        {
          OFFSET 0.36743 -3.19131 5.54287
          CHANNELS 3 Zrotation Xrotation Yrotation
          JOINT LeftToeBase2
          {
            OFFSET 0.08751 0.04849 1.36758
            CHANNELS 3 Zrotation Xrotation Yrotation
            JOINT LeftToeBase3
            {
              OFFSET 0.07484 0.06785 1.16707
            }
          }
        }
      }
    }
  }
  JOINT RightUpLeg
  {
    OFFSET -4.06526 -3.90731 0.41712
    CHANNELS 3 Zrotation Xrotation Yrotation
    JOINT RightLeg
    {
      OFFSET -0.00029 -18.4821 0.0044
      CHANNELS 3 Zrotation Xrotation Yrotation
      JOINT RightFoot
      {
        OFFSET 0.0016 -15.2898 -0.02569
        CHANNELS 3 Zrotation Xrotation Yrotation
        JOINT RightToeBase
        {
          OFFSET -0.3542 -3.19109 5.54386
          CHANNELS 3 Zrotation Xrotation Yrotation
          JOINT RightToeBase2
          {
            OFFSET -0.08424 0.04854 1.36778
            CHANNELS 3 Zrotation Xrotation Yrotation
            JOINT RightToeBase3
            {
              OFFSET -0.07205 0.0679 1.16725
            }
          }
        }
      }
    }
  }
  JOINT Spine
  {
    OFFSET 1e-005 4.46517 -0.10224
    CHANNELS 3 Zrotation Xrotation Yrotation
    JOINT Spine1
    {
      OFFSET 1e-005 4.46212 -0.1824
      CHANNELS 3 Zrotation Xrotation Yrotation
      JOINT Spine2
      {
        OFFSET 0 4.37937 -0.881
        CHANNELS 3 Zrotation Xrotation Yrotation
        JOINT Spine3
        {
          OFFSET 1e-005 4.68286 0.21414
          CHANNELS 3 Zrotation Xrotation Yrotation
          JOINT Neck
          {
            OFFSET 0 1.76964 0.82454
            CHANNELS 3 Zrotation Xrotation Yrotation
            JOINT Head
            {
              OFFSET 0 1.6961 0.93145
              CHANNELS 3 Zrotation Xrotation Yrotation
              JOINT Head_End
              {
                OFFSET 1e-005 7.8375 1.52603
              }
            }
          }
          JOINT LeftShoulder
          {
            OFFSET 1.19381 -0.75881 -0.02768
            CHANNELS 3 Zrotation Xrotation Yrotation
            JOINT LeftArm
            {
              OFFSET 5.18779 -2e-005 1e-005
              CHANNELS 3 Zrotation Xrotation Yrotation
              JOINT LeftForeArm
              {
                OFFSET 12.7364 -4e-005 2e-005
                CHANNELS 3 Zrotation Xrotation Yrotation
                JOINT LeftHand
                {
                  OFFSET 9.21452 -2e-005 1e-005
                  CHANNELS 3 Zrotation Xrotation Yrotation
                }
              }
            }
          }
          JOINT RightShoulder
          {
            OFFSET -1.19381 -0.75881 -0.02767
            CHANNELS 3 Zrotation Xrotation Yrotation
            JOINT RightArm
            {
              OFFSET -5.18779 1e-005 -1e-005
              CHANNELS 3 Zrotation Xrotation Yrotation
              JOINT RightForeArm
              {
                OFFSET -12.7364 3e-005 -2e-005
                CHANNELS 3 Zrotation Xrotation Yrotation
                JOINT RightHand
                {
                  OFFSET -9.21452 2e-005 -1e-005
                  CHANNELS 3 Zrotation Xrotation Yrotation
                }
              }
            }
          }
        }
      }
    }
  }
}
MOTION
Frames: 17
Frame Time: 	0.0333333
1.28178e-007 40.0634 -1.69548e-007 3.23122 0.429682 -0.0242555 -8.89194 3.38326 5.92351  -0.0313078 3.80119 0.612475  6.1945 -7.31333 5.85606  3.68331e-011 -4.0591e-011 6.05275e-011  -0 0 -0   -15.5828 -6.14331 -7.26497  0.108795 12.1231 0.238895  12.075 -4.51798 -16.8011  -7.61642e-012 -1.9881e-011 1.82023e-011  -0 0 -0   -0.301898 0.355773 -0.273454  -1.31197 0.721412 -0.559242  -1.312 0.721922 -0.558651  -1.31205 0.722415 -0.55805  -8.54271 6.558 3.86323  -13.981 -3.04317 7.1345   -6.80238 14.6807 -11.907  -64.2332 5.87368 -7.27347  -0.446803 -1.01266 -39.9818  -25.6154 21.3133 -12.3811  -4.12814 12.797 -2.09272  71.764 23.4679 10.8661  0.0217627 0.405024 34.693  9.3759 28.2922 12.2192 
0.075085 40.0826 0.00549237 2.97258 0.905146 0.250089 -8.70728 2.77153 5.70852  -0.0341277 4.03855 0.61657  6.14903 -7.42417 5.71905  3.68331e-011 -4.0591e-011 6.05275e-011  -0 0 -0   -15.3327 -5.54368 -6.93166  0.0786589 10.0052 0.340805  12.4209 -3.64422 -17.4707  -7.61642e-012 -1.9881e-011 1.82023e-011  -0 0 -0   -0.302014 0.331424 -0.273453  -1.19783 0.672281 -0.559237  -1.19786 0.67273 -0.558645  -1.19789 0.673166 -0.558044  -7.52678 7.38894 3.91563  -13.9245 -1.2894 7.28019   -6.33363 14.3246 -12.2686  -65.0147 5.97203 -9.2415  -0.462324 -1.02862 -40.77  -37.5436 28.8224 -5.58389  -3.94503 12.2211 -1.76962  69.1503 22.6757 11.7653  0.0243124 0.39467 33.7952  15.307 30.7616 10.4934 
0.126106 40.0984 0.00264912 2.73153 1.34399 0.605919 -8.49468 2.0879 5.6136  -0.0401525 4.49668 0.630704  6.05915 -7.65485 5.39721  3.68331e-011 -4.0591e-011 6.05275e-011  -0 0 -0   -15.0709 -4.86878 -6.48348  0.0526586 7.82744 0.437325  12.7395 -2.78936 -18.3865  -7.61642e-012 -1.9881e-011 1.82023e-011  -0 0 -0   -0.302129 0.318441 -0.263903  -1.07938 0.646168 -0.54277  -1.0794 0.646536 -0.542302  -1.07942 0.646895 -0.541827  -6.57995 7.84568 4.26904  -13.7622 -0.270159 7.58422   -6.19463 14.0958 -12.2251  -64.8838 5.9234 -11.4186  -0.473307 -1.03965 -41.3209  -42.4252 30.7397 -1.93751  -3.91623 11.8875 -1.16604  66.9264 21.6404 12.4676  0.0265105 0.385101 32.968  19.5499 33.0662 8.22475 
0.138801 40.1097 -0.0100334 2.54001 1.68725 1.13751 -8.26484 1.4033 5.53498  -0.0461174 5.15498 0.649962  5.92683 -7.97527 4.90322  3.68331e-011 -4.0591e-011 6.05275e-011  -0 0 -0   -14.8396 -4.25244 -6.13402  0.0353731 6.0893 0.506559  12.9626 -2.18659 -19.3694  -7.61642e-012 -1.9881e-011 1.82023e-011  -0 0 -0   -0.292543 0.327426 -0.246874  -0.962981 0.664185 -0.50955  -0.962991 0.664475 -0.509153  -0.963008 0.664759 -0.508752  -5.84869 7.57884 5.12462  -13.5372 -0.493049 8.214   -6.41646 14.0273 -11.969  -63.4186 5.13706 -13.3597  -0.48284 -1.04907 -41.7953  -38.9181 28.2594 -5.82613  -4.19148 11.7673 -0.458628  65.6021 20.2523 12.8173  0.0283652 0.376523 32.2286  20.1141 33.0831 6.39379 
0.102785 40.1173 -0.0258857 2.4222 1.93673 1.96531 -8.02778 0.785516 5.33895  -0.0543729 5.88531 0.668319  5.75317 -8.29979 4.24265  3.68331e-011 -4.0591e-011 6.05275e-011  -0 0 -0   -14.6747 -3.93341 -6.04315  0.030268 5.42763 0.525308  13.0433 -2.16681 -20.2742  -7.61642e-012 -1.9881e-011 1.82023e-011  -0 0 -0   -0.2754 0.352869 -0.230909  -0.877132 0.71532 -0.47741  -0.877141 0.715566 -0.477028  -0.877157 0.715806 -0.476641  -5.40701 6.8521 5.89529  -13.2969 -1.41568 8.7442   -6.66285 13.9656 -11.8226  -61.301 3.71643 -15.0392  -0.492984 -1.0589 -42.2953  -33.891 22.1417 -13.1673  -4.59235 11.7395 0.0390361  65.0794 18.6158 12.8829  0.0300755 0.369866 31.6567  17.9948 28.7279 7.51949 
0.016405 40.1289 -0.0292964 2.32901 2.15485 3.18932 -7.73519 0.270752 4.95496  -0.0610416 6.50417 0.676815  5.51928 -8.53447 3.38841  3.68331e-011 -4.0591e-011 6.05275e-011  -0 0 -0   -14.511 -3.77571 -6.49191  0.0285859 5.5154 0.508381  12.9878 -2.54507 -21.0047  -7.61642e-012 -1.9881e-011 1.82023e-011  -0 0 -0   -0.264639 0.371006 -0.226865  -0.833061 0.75238 -0.462764  -0.833068 0.752609 -0.462382  -0.833082 0.752832 -0.461996  -5.14725 6.10758 6.33695  -13.0595 -2.56396 9.09073   -6.7128 13.8887 -11.9915  -59.0909 1.14646 -16.8042  -0.514574 -1.07929 -43.3466  -35.6776 17.2018 -17.7048  -4.81809 11.7856 0.266016  65.02 17.0131 12.6635  0.0288433 0.374213 32.0302  14.9338 18.1541 11.1321 
-0.109475 40.146 -0.00900481 2.23324 2.35726 4.77071 -7.38469 -0.0922275 4.39336  -0.0638761 6.87768 0.673351  5.23765 -8.62138 2.38268  3.68331e-011 -4.0591e-011 6.05275e-011  -0 0 -0   -14.3249 -3.58815 -7.68823  0.0286724 5.89097 0.47615  12.8234 -3.03428 -21.4055  -7.61642e-012 -1.9881e-011 1.82023e-011  -0 0 -0   -0.266345 0.369797 -0.227419  -0.828998 0.751171 -0.462042  -0.829 0.751396 -0.46168  -0.829008 0.751616 -0.46143  -4.98274 5.56482 6.43361  -12.853 -3.63682 9.22474   -6.43238 13.7356 -12.511  -57.2714 -2.89867 -18.6088  -0.551853 -1.1128 -45.121  -43.7333 14.1524 -19.0996  -4.72714 11.9114 0.216231  65.2463 15.561 12.1833  0.0231477 0.399486 34.2125  13.3875 1.40317 14.6013 
-0.255476 40.1684 0.0377901 2.09258 2.49794 6.51252 -6.95711 -0.274382 3.81522  -0.063249 7.04039 0.659769  4.92766 -8.61601 1.26391  3.68331e-011 -4.0591e-011 6.05275e-011  -0 0 -0   -14.0441 -3.18908 -9.25087  0.031027 6.10263 0.445804  12.5915 -3.42907 -21.6498  -7.61642e-012 -1.9881e-011 1.82023e-011  -0 0 -0   -0.27903 0.352023 -0.23016  -0.84211 0.717152 -0.465549  -0.842105 0.717369 -0.465226  -0.842099 0.717581 -0.465492  -4.91853 5.27639 6.30143  -12.7272 -4.43356 9.16594   -5.94067 13.5141 -13.1788  -55.9785 -7.34293 -20.6576  -0.590513 -1.14542 -46.9119  -51.0038 12.2739 -19.6208  -4.52061 12.0474 0.0391476  66.0151 14.3054 11.1414  0.00352924 0.464983 39.974  10.2896 -18.161 15.661 
-0.401869 40.1944 0.109422 1.86844 2.54058 8.16986 -6.43423 -0.309345 3.27213  -0.0616123 7.12348 0.644182  4.60357 -8.61253 0.212304  3.68331e-011 -4.0591e-011 6.05275e-011  -0 0 -0   -13.5856 -2.44709 -10.7759  0.0348818 5.73919 0.433811  12.3466 -3.54274 -21.8469  -7.61642e-012 -1.9881e-011 1.82023e-011  -0 0 -0   -0.303044 0.321946 -0.232677  -0.849824 0.658582 -0.473607  -0.849808 0.658777 -0.473366  -0.849809 0.658968 -0.471983  -4.93429 5.18547 6.0786  -12.7063 -4.84741 9.02517   -5.33935 13.2135 -13.9176  -55.4152 -12.0406 -22.2742  -0.634564 -1.18018 -48.8984  -53.0174 9.8805 -21.9782  -4.17158 12.1369 -0.226658  67.2094 12.951 10.2197  -0.0393682 0.56134 48.8679  1.54487 -35.3359 13.8144 
-0.527603 40.2253 0.198856 1.53571 2.50517 9.45203 -5.82959 -0.261638 2.79872  -0.0602704 7.19551 0.631137  4.28258 -8.66193 -0.536818  3.68331e-011 -4.0591e-011 6.05275e-011  -0 0 -0   -12.9952 -1.79477 -11.3226  0.0351881 5.45778 0.42688  12.265 -3.70248 -22.4975  -7.61642e-012 -1.9881e-011 1.82023e-011  -0 0 -0   -0.31981 0.280063 -0.237309  -0.849417 0.576414 -0.481343  -0.849389 0.576588 -0.481184  -0.849365 0.57676 -0.481022  -4.92835 5.22092 5.88466  -12.725 -5.00382 8.92476   -4.67126 12.7183 -14.5523  -55.6445 -16.8496 -22.9419  -0.696141 -1.22481 -51.5908  -48.2535 4.02613 -26.9053  -3.73487 12.0481 -0.297357  68.6023 10.3417 10.3064  -0.0969266 0.650272 57.8007  -9.01916 -39.97 9.37477 
-0.620599 40.2554 0.281987 1.16321 2.4061 10.077 -5.24026 -0.219732 2.41467  -0.0616141 7.39667 0.627878  4.00358 -8.82401 -0.727631  3.68331e-011 -4.0591e-011 6.05275e-011  -0 0 -0   -12.4699 -1.61397 -11.3034  0.0372947 5.86065 0.412049  12.3924 -4.02155 -22.8818  -7.61642e-012 -1.9881e-011 1.82023e-011  -0 0 -0   -0.325107 0.233913 -0.229187  -0.853839 0.485988 -0.462901  -0.853803 0.486148 -0.462799  -0.85377 0.486307 -0.462693  -4.80205 5.29393 5.82932  -12.6849 -5.08811 8.80834   -3.94173 11.9828 -14.7824  -56.136 -20.7516 -23.3911  -0.758537 -1.26574 -54.2329  -39.732 -8.16201 -33.1038  -3.55476 11.6544 0.272713  69.7005 7.76321 11.8021  -0.146065 0.707669 64.1685  -16.0298 -37.5585 8.74954 
-0.682945 40.268 0.322885 0.937527 2.175 10.0135 -4.85324 -0.19063 2.22673  -0.068675 7.90396 0.642235  3.80802 -9.15975 -0.429099  3.68331e-011 -4.0591e-011 6.05275e-011  -0 0 -0   -12.1536 -1.46065 -11.196  0.0403766 6.12505 0.410253  12.6053 -4.12953 -22.612  -7.61642e-012 -1.9881e-011 1.82023e-011  -0 0 -0   -0.347723 0.214213 -0.183546  -0.88533 0.448291 -0.371754  -0.885296 0.448409 -0.371691  -0.885264 0.448525 -0.371626  -4.63624 5.3664 5.97635  -12.5031 -5.26956 8.46434   -3.11469 10.8909 -14.5564  -56.9546 -23.8669 -24.7177  -0.782712 -1.28052 -55.236  -35.479 -22.1529 -40.7404  -3.59756 10.921 1.67638  69.603 5.59184 14.0965  -0.183961 0.744303 68.6097  -19.3534 -34.9352 9.86087 
-0.718633 40.2618 0.317019 0.88793 1.80713 9.6474 -4.68551 -0.17495 2.13454  -0.0817141 8.71692 0.671921  3.68103 -9.63673 0.0628209  3.68331e-011 -4.0591e-011 6.05275e-011  -0 0 -0   -12.0781 -1.26153 -11.0317  0.0429597 6.37583 0.412681  12.8524 -4.24621 -22.0326  -7.61642e-012 -1.9881e-011 1.82023e-011  -0 0 -0   -0.371988 0.218362 -0.112185  -0.918553 0.458558 -0.229475  -0.918532 0.458619 -0.229436  -0.918512 0.45868 -0.229396  -4.70858 5.54098 6.24473  -12.2671 -5.40409 7.92984   -2.34119 9.58039 -14.2274  -57.2415 -25.42 -27.0318  -0.775089 -1.27592 -54.9208  -33.5273 -39.0529 -47.7576  -3.98071 10.0913 3.80013  68.3412 3.24303 16.6054  -0.212323 0.768312 71.7405  -20.3902 -34.0226 10.3299 
-0.737479 40.2444 0.268233 0.89925 1.34772 9.49071 -4.58631 -0.251959 2.05091  -0.100921 9.82796 0.713489  3.5911 -10.2129 0.326383  3.68331e-011 -4.0591e-011 6.05275e-011  -0 0 -0   -12.1005 -0.991566 -10.8741  0.0467513 6.70607 0.410213  13.1079 -4.4516 -21.6315  -7.61642e-012 -1.9881e-011 1.82023e-011  -0 0 -0   -0.377933 0.233888 -0.0444515  -0.910742 0.492412 -0.0945903  -0.910738 0.492424 -0.0945669  -0.910735 0.492436 -0.0945433  -5.19387 5.79681 6.45444  -12.1707 -5.05188 7.36785   -1.89117 8.39185 -14.2909  -56.4023 -25.8083 -30.3342  -0.753742 -1.26273 -54.0326  -23.5369 -56.0929 -44.6494  -4.92662 9.27384 6.23107  66.7478 0.557135 19.1282  -0.226454 0.779323 73.2497  -20.4994 -33.8663 10.7696 
-0.742327 40.2195 0.185624 0.942967 0.857041 9.84114 -4.51571 -0.391999 1.99441  -0.122324 11.0168 0.757845  3.55077 -10.7604 0.0619578  3.68331e-011 -4.0591e-011 6.05275e-011  -0 0 -0   -12.1312 -0.65187 -10.7709  0.0518207 7.14085 0.392041  13.2048 -4.80449 -21.7814  -7.61642e-012 -1.9881e-011 1.82023e-011  -0 0 -0   -0.366792 0.255042 -0.00830845  -0.86456 0.538325 -0.0226279  -0.864567 0.538314 -0.0226141  -0.864574 0.538302 -0.0226006  -6.04841 6.19849 6.45804  -12.3365 -4.0649 6.99143   -1.6547 7.30015 -14.9092  -55.2516 -26.0799 -34.694  -0.653754 -1.19456 -49.7474  -2.11601 -58.7294 -27.096  -6.2553 8.37098 8.26857  65.0169 -1.87626 21.9155  -0.22147 0.775506 72.7209  -20.7924 -32.9644 10.6602 
-0.744215 40.195 0.0975581 1.07135 0.404278 10.4987 -4.53989 -0.3717 1.93752  -0.135658 11.75 0.785553  3.59242 -11.0322 -0.483445  3.68331e-011 -4.0591e-011 6.05275e-011  -0 0 -0   -12.1769 -0.297981 -10.7084  0.0555463 7.60341 0.355324  13.0071 -5.22523 -22.3671  -7.61642e-012 -1.9881e-011 1.82023e-011  -0 0 -0   -0.36164 0.272256 -0.00261626  -0.839725 0.575965 -0.0106741  -0.839735 0.575951 -0.0106675  -0.839744 0.575937 -0.0106613  -6.93028 6.75156 6.37671  -12.7347 -2.4924 6.91593   -1.36763 6.3614 -15.9954  -53.5294 -25.8461 -38.6622  -0.517558 -1.08205 -43.4905  8.65089 -52.7312 -17.0613  -7.42294 7.40198 9.24632  63.4218 -3.6243 25.2344  -0.199727 0.757981 70.3688  -20.8832 -31.2483 9.02913 
-0.743973 40.1774 0.0198122 1.32285 0.0310515 11.1841 -4.71577 -0.0734103 1.9003  -0.135059 11.7676 0.786834  3.72092 -10.9203 -1.05218  3.68331e-011 -4.0591e-011 6.05275e-011  -0 0 -0   -12.3101 0.016208 -10.6491  0.0593242 8.00682 0.313153  12.6121 -5.59206 -23.1241  -7.61642e-012 -1.9881e-011 1.82023e-011  -0 0 -0   -0.374849 0.281776 -0.0151599  -0.874146 0.596938 -0.0337873  -0.874151 0.596931 -0.0337841  -0.874156 0.596923 -0.033781  -7.52912 7.38616 6.35989  -13.1979 -0.626861 7.15302   -0.778875 5.60518 -17.2347  -50.9535 -24.5014 -40.8271  -0.422242 -0.986472 -38.7109  8.05467 -53.6989 -15.0525  -8.37307 6.54352 9.56788  62.2193 -4.62279 28.64  -0.166702 0.728322 66.6283  -20.8711 -29.6618 7.3458 
